# xmcd
#
# Track frame offsets: 
#        150
#        15868
#        31588
#        43572
#        55557
#        61827
#        68143
#        74233
#        80323
#        88575
#        96828
#        106806
#
# Disc length: 1555 seconds
#
# Revision: 0
# Processed by: cddbd v1.5.2PL0 Copyright (c) Steve Scherf et al.
# Submitted via: ExactAudioCopy v0.99pb4
#
DISCID=8906110c
DTITLE=Junge Dichter und Denker - usik, die schlau macht - Klassische 
DTITLE=Gedichte als Rap - CD1 
DYEAR=2007
DGENRE=Speech
TTITLE0=Herr von Ribbeck auf Ribbeck im Havelland
TTITLE1=Herr von Ribbeck auf Ribbeck im Havelland (Playback)
TTITLE2=Dunkel wars, der Mond schien helle
TTITLE3=Dunkel wars, der Mond schien helle (Playback)
TTITLE4=Er ist´s
TTITLE5=Er ist´s (Playback)
TTITLE6=Im Park
TTITLE7=Im Park (Playback)
TTITLE8=Die drei Spatzen
TTITLE9=Die drei Spatzen (Playback)
TTITLE10=Guten Morgen (Das Mammut)
TTITLE11=Guten Morgen (Das Mammut) (Playback)
EXTD=
EXTT0=
EXTT1=
EXTT2=
EXTT3=
EXTT4=
EXTT5=
EXTT6=
EXTT7=
EXTT8=
EXTT9=
EXTT10=
EXTT11=
PLAYORDER=
